<svg width="200" height="200" viewBox="0 0 200 200" xmlns="http://www.w3.org/2000/svg">
  <!-- Fundo do ícone -->
  <rect width="200" height="200" fill="#f8fafc" rx="20" />
  
  <!-- Nós da rede -->
  <circle cx="100" cy="100" r="20" fill="#e11d48" />
  <circle cx="50" cy="50" r="15" fill="#e11d48" opacity="0.9" />
  <circle cx="150" cy="50" r="15" fill="#e11d48" opacity="0.8" />
  <circle cx="50" cy="150" r="15" fill="#e11d48" opacity="0.7" />
  <circle cx="150" cy="150" r="15" fill="#e11d48" opacity="0.6" />
  
  <!-- Conexões da rede -->
  <line x1="100" y1="100" x2="50" y2="50" stroke="#334155" stroke-width="3" />
  <line x1="100" y1="100" x2="150" y2="50" stroke="#334155" stroke-width="3" />
  <line x1="100" y1="100" x2="50" y2="150" stroke="#334155" stroke-width="3" />
  <line x1="100" y1="100" x2="150" y2="150" stroke="#334155" stroke-width="3" />
  
  <!-- Conexões secundárias -->
  <line x1="50" y1="50" x2="150" y2="50" stroke="#334155" stroke-width="2" stroke-dasharray="5,5" />
  <line x1="50" y1="150" x2="150" y2="150" stroke="#334155" stroke-width="2" stroke-dasharray="5,5" />
  <line x1="50" y1="50" x2="50" y2="150" stroke="#334155" stroke-width="2" stroke-dasharray="5,5" />
  <line x1="150" y1="50" x2="150" y2="150" stroke="#334155" stroke-width="2" stroke-dasharray="5,5" />
  
  <!-- Pequenos pontos de dados -->
  <circle cx="75" cy="75" r="5" fill="#e11d48" opacity="0.5" />
  <circle cx="125" cy="75" r="5" fill="#e11d48" opacity="0.5" />
  <circle cx="75" cy="125" r="5" fill="#e11d48" opacity="0.5" />
  <circle cx="125" cy="125" r="5" fill="#e11d48" opacity="0.5" />
</svg>