<svg width="1200" height="400" viewBox="0 0 1200 400" xmlns="http://www.w3.org/2000/svg">
  <!-- Fundo gradiente -->
  <defs>
    <linearGradient id="grad1" x1="0%" y1="0%" x2="100%" y2="0%">
      <stop offset="0%" style="stop-color:#3b82f6;stop-opacity:1" />
      <stop offset="100%" style="stop-color:#1e40af;stop-opacity:1" />
    </linearGradient>
  </defs>
  <rect width="1200" height="400" fill="url(#grad1)" />
  
  <!-- Padrão de fundo -->
  <g opacity="0.1" fill="#ffffff">
    <circle cx="100" cy="100" r="20" />
    <circle cx="300" cy="200" r="15" />
    <circle cx="500" cy="150" r="25" />
    <circle cx="700" cy="250" r="18" />
    <circle cx="900" cy="100" r="22" />
    <circle cx="1100" cy="300" r="17" />
    <circle cx="200" cy="300" r="19" />
    <circle cx="400" cy="100" r="16" />
    <circle cx="600" cy="300" r="21" />
    <circle cx="800" cy="150" r="23" />
    <circle cx="1000" cy="200" r="18" />
  </g>
  
  <!-- Elementos de código -->
  <g fill="none" stroke="#ffffff" stroke-width="2" opacity="0.7">
    <path d="M50,350 L150,350 L150,250 L50,250 Z" />
    <path d="M200,350 L300,350 L300,200 L200,200 Z" />
    <path d="M350,350 L450,350 L450,300 L350,300 Z" />
    <line x1="500" y1="250" x2="600" y2="250" />
    <line x1="500" y1="280" x2="580" y2="280" />
    <line x1="500" y1="310" x2="550" y2="310" />
    <line x1="500" y1="340" x2="590" y2="340" />
    <rect x="650" y="250" width="100" height="100" rx="10" />
    <circle cx="800" cy="300" r="50" />
    <polygon points="900,250 950,350 850,350" />
    <path d="M1000,250 C1030,270 1070,270 1100,250 C1070,330 1030,330 1000,250 Z" />
  </g>
  
  <!-- Texto principal -->
  <text x="600" y="150" font-family="Arial, sans-serif" font-size="60" font-weight="bold" fill="#ffffff" text-anchor="middle">Nossos Cursos</text>
  <text x="600" y="200" font-family="Arial, sans-serif" font-size="24" fill="#ffffff" text-anchor="middle">Conheça nossa oferta completa de cursos em tecnologia</text>
</svg>