<svg width="1200" height="400" viewBox="0 0 1200 400" xmlns="http://www.w3.org/2000/svg">
  <!-- Fundo gradiente -->
  <defs>
    <linearGradient id="grad1" x1="0%" y1="0%" x2="100%" y2="0%">
      <stop offset="0%" style="stop-color:#10b981;stop-opacity:1" />
      <stop offset="100%" style="stop-color:#047857;stop-opacity:1" />
    </linearGradient>
  </defs>
  <rect width="1200" height="400" fill="url(#grad1)" />
  
  <!-- Padrão de fundo -->
  <g opacity="0.1" fill="#ffffff">
    <rect x="50" y="50" width="40" height="40" rx="5" />
    <rect x="150" y="100" width="30" height="30" rx="5" />
    <rect x="250" y="150" width="50" height="50" rx="5" />
    <rect x="350" y="80" width="35" height="35" rx="5" />
    <rect x="450" y="120" width="45" height="45" rx="5" />
    <rect x="550" y="60" width="38" height="38" rx="5" />
    <rect x="650" y="140" width="42" height="42" rx="5" />
    <rect x="750" y="90" width="32" height="32" rx="5" />
    <rect x="850" y="130" width="48" height="48" rx="5" />
    <rect x="950" y="70" width="36" height="36" rx="5" />
    <rect x="1050" y="110" width="44" height="44" rx="5" />
  </g>
  
  <!-- Elementos gráficos -->
  <g fill="none" stroke="#ffffff" stroke-width="2" opacity="0.7">
    <!-- Ícone de pessoas -->
    <circle cx="300" cy="300" r="30" />
    <circle cx="380" cy="300" r="30" />
    <circle cx="460" cy="300" r="30" />
    <path d="M300,330 L300,370" />
    <path d="M380,330 L380,370" />
    <path d="M460,330 L460,370" />
    <path d="M270,350 L330,350" />
    <path d="M350,350 L410,350" />
    <path d="M430,350 L490,350" />
    
    <!-- Ícone de prédio -->
    <rect x="600" y="250" width="120" height="120" />
    <rect x="620" y="270" width="20" height="20" />
    <rect x="660" y="270" width="20" height="20" />
    <rect x="620" y="310" width="20" height="20" />
    <rect x="660" y="310" width="20" height="20" />
    <rect x="640" y="350" width="40" height="20" />
    
    <!-- Ícone de gráfico -->
    <path d="M800,370 L800,250 L900,250 L900,370" />
    <path d="M920,370 L920,280 L1020,280 L1020,370" />
    <line x1="780" y1="370" x2="1040" y2="370" />
  </g>
  
  <!-- Texto principal -->
  <text x="600" y="150" font-family="Arial, sans-serif" font-size="60" font-weight="bold" fill="#ffffff" text-anchor="middle">Sobre Nós</text>
  <text x="600" y="200" font-family="Arial, sans-serif" font-size="24" fill="#ffffff" text-anchor="middle">Conheça nossa história, missão e valores</text>
</svg>